<svg width="68" height="97" viewBox="0 0 68 97" fill="none" xmlns="http://www.w3.org/2000/svg">
<path d="M52.9091 36.5C52.9091 48.4086 44.7688 58.0625 34.7273 58.0625C24.6857 58.0625 16.5455 48.4086 16.5455 36.5C16.5455 24.5914 24.6857 14.9375 34.7273 14.9375C44.7688 14.9375 52.9091 24.5914 52.9091 36.5Z" fill="white"/>
<path d="M34.9346 2.01343C30.6555 1.89047 26.3947 2.6131 22.4046 4.13852C18.4145 5.66394 14.7763 7.96115 11.7053 10.8941C8.63428 13.8271 6.19297 17.3362 4.52591 21.2136C2.85885 25.091 1.99993 29.258 2 33.4677C2 67.9084 34 94 34 94C34 94 66 67.9033 66 33.4677C66.0001 25.2808 62.7555 17.4161 56.9548 11.5433C51.1542 5.67048 43.2543 2.25195 34.9323 2.01343H34.9346ZM33.9991 17.9952C38.6421 17.9956 43.0948 19.8096 46.3777 23.0382C49.6606 26.2669 51.5048 30.6457 51.5046 35.2114C51.5045 39.7771 49.6599 44.1557 46.3767 47.3841C43.0935 50.6125 38.6407 52.4262 33.9977 52.4262C29.3546 52.4262 24.9018 50.6125 21.6186 47.3841C18.3354 44.1557 16.4909 39.7771 16.4907 35.2114C16.4905 30.6457 18.3347 26.2669 21.6176 23.0382C24.9005 19.8096 29.3532 17.9956 33.9963 17.9952H33.9991Z" fill="#E21F22"/>
<path d="M34 94L33.3682 94.7754L34 95.29L34.6318 94.7754L34 94ZM34 94C34.6173 94.7569 34.632 94.7744 34.6328 94.7744L34.6348 94.7734C34.6361 94.7724 34.6374 94.7704 34.6396 94.7686C34.6442 94.7649 34.6509 94.7598 34.6592 94.7529C34.6759 94.7392 34.6999 94.7187 34.7314 94.6924C34.7947 94.6397 34.8878 94.5621 35.0078 94.46C35.2478 94.2556 35.5975 93.9534 36.041 93.5576C36.9281 92.766 38.191 91.5991 39.7051 90.0928C42.7322 87.0811 46.7682 82.7049 50.8047 77.2412C58.8648 66.3311 67 50.9895 67 33.4678C67.0001 25.0153 63.6498 16.8991 57.666 10.8408C51.683 4.78334 43.5384 1.26072 34.9619 1.01465L34.9629 1.01367C30.5526 0.887013 26.161 1.6317 22.0479 3.2041C17.9345 4.77667 14.1823 7.14564 11.0146 10.1709C7.84703 13.1961 5.32797 16.8166 3.60742 20.8184C1.88686 24.8202 0.999923 29.1219 1 33.4678C1.00001 50.9921 9.13513 66.3336 17.1953 77.2432C21.2318 82.7066 25.2677 87.0825 28.2949 90.0938C29.8089 91.5998 31.0719 92.7661 31.959 93.5576C32.4024 93.9533 32.7522 94.2557 32.9922 94.46C33.1122 94.5621 33.2053 94.6397 33.2686 94.6924C33.3002 94.7187 33.3241 94.7392 33.3408 94.7529C33.3492 94.7598 33.3558 94.7648 33.3604 94.7686C33.3626 94.7704 33.3639 94.7724 33.3652 94.7734L33.3672 94.7744C33.3677 94.7747 33.3741 94.7677 34 94Z" stroke="white" stroke-width="2"/>
</svg>
